<?xml version="1.0" encoding="UTF-8"?>
<!-- Generated by Pixelmator Pro 3.2.3 -->
<svg width="512" height="512" viewBox="0 0 512 512" xmlns="http://www.w3.org/2000/svg" xmlns:xlink="http://www.w3.org/1999/xlink">
    <g id="Gruppe">
        <linearGradient id="linearGradient1" x1="256" y1="512" x2="256" y2="0" gradientUnits="userSpaceOnUse">
            <stop offset="0" stop-color="#ce0707" stop-opacity="1"/>
            <stop offset="1" stop-color="#ff3b30" stop-opacity="1"/>
        </linearGradient>
        <path id="Form" fill="url(#linearGradient1)" fill-rule="evenodd" stroke="none" d="M 0 512 L 512 512 L 512 0 L 0 0 Z"/>
        <g id="g1">
            <g id="calendar">
                <path id="Pfad" fill="#000000" stroke="none" opacity="0" d="M 82 95.567017 L 407.294128 95.567017 L 407.294128 396.37912 L 82 396.37912 Z"/>
                <path id="Ellipse" fill="#ffffff" fill-rule="evenodd" stroke="none" d="M 133.25 396.378906 C 99.137375 396.378906 82 379.566711 82 345.78125 L 82 146.490234 C 82 112.704132 99.137375 95.892578 133.25 95.892578 L 356.207031 95.892578 C 390.320068 95.892578 407.294922 112.867401 407.294922 146.490234 L 407.294922 282.980469 C 399.868469 281.069031 392.081696 280.052734 384.058594 280.052734 C 383.039978 280.052734 382.026337 280.070984 381.015625 280.103516 L 381.015625 193.333984 C 381.015625 178.317841 372.854187 170.484375 358.328125 170.484375 L 130.802734 170.484375 C 116.276382 170.484375 108.277344 178.317841 108.277344 193.333984 L 108.277344 347.25 C 108.277344 362.429932 116.276382 370.099609 130.802734 370.099609 L 291.164063 370.099609 C 291.134644 371.061218 291.117188 372.025391 291.117188 372.994141 C 291.117188 381.071472 292.147461 388.907166 294.083984 396.378906 L 133.25 396.378906 Z M 158.712891 335.988281 C 152.837082 335.988281 151.041016 334.191895 151.041016 328.478516 L 151.041016 318.849609 C 151.041016 313.137573 152.837082 311.505859 158.712891 311.505859 L 168.179688 311.505859 C 174.055634 311.505859 175.849609 313.137573 175.849609 318.849609 L 175.849609 328.478516 C 175.849609 334.191895 174.055634 335.988281 168.179688 335.988281 L 158.712891 335.988281 Z M 212.900391 335.988281 C 207.187683 335.988281 205.230469 334.191895 205.230469 328.478516 L 205.230469 318.849609 C 205.230469 313.137573 207.187683 311.505859 212.900391 311.505859 L 222.53125 311.505859 C 228.243286 311.505859 230.039063 313.137573 230.039063 318.849609 L 230.039063 328.478516 C 230.039063 334.191895 228.243286 335.988281 222.53125 335.988281 L 212.900391 335.988281 Z M 267.089844 335.988281 C 261.376495 335.988281 259.417969 334.191895 259.417969 328.478516 L 259.417969 318.849609 C 259.417969 313.137573 261.376495 311.505859 267.089844 311.505859 L 276.71875 311.505859 C 282.430786 311.505859 284.390625 313.137573 284.390625 318.849609 L 284.390625 328.478516 C 284.390625 334.191895 282.430786 335.988281 276.71875 335.988281 L 267.089844 335.988281 Z M 158.712891 282.453125 C 152.837082 282.453125 151.041016 280.820801 151.041016 275.107422 L 151.041016 265.476563 C 151.041016 259.764526 152.837082 258.132813 158.712891 258.132813 L 168.179688 258.132813 C 174.055634 258.132813 175.849609 259.764526 175.849609 265.476563 L 175.849609 275.107422 C 175.849609 280.820801 174.055634 282.453125 168.179688 282.453125 L 158.712891 282.453125 Z M 212.900391 282.453125 C 207.187683 282.453125 205.230469 280.820801 205.230469 275.107422 L 205.230469 265.476563 C 205.230469 259.764526 207.187683 258.132813 212.900391 258.132813 L 222.53125 258.132813 C 228.243286 258.132813 230.039063 259.764526 230.039063 265.476563 L 230.039063 275.107422 C 230.039063 280.820801 228.243286 282.453125 222.53125 282.453125 L 212.900391 282.453125 Z M 267.089844 282.453125 C 261.376495 282.453125 259.417969 280.820801 259.417969 275.107422 L 259.417969 265.476563 C 259.417969 259.764526 261.376495 258.132813 267.089844 258.132813 L 276.71875 258.132813 C 282.430786 258.132813 284.390625 259.764526 284.390625 265.476563 L 284.390625 275.107422 C 284.390625 280.820801 282.430786 282.453125 276.71875 282.453125 L 267.089844 282.453125 Z M 321.277344 282.453125 C 315.565338 282.453125 313.769531 280.820801 313.769531 275.107422 L 313.769531 265.476563 C 313.769531 259.764526 315.565338 258.132813 321.277344 258.132813 L 330.908203 258.132813 C 336.621552 258.132813 338.580078 259.764526 338.580078 265.476563 L 338.580078 275.107422 C 338.580078 280.820801 336.621552 282.453125 330.908203 282.453125 L 321.277344 282.453125 Z M 212.900391 229.080078 C 207.187683 229.080078 205.230469 227.44696 205.230469 221.734375 L 205.230469 212.105469 C 205.230469 206.392761 207.187683 204.597656 212.900391 204.597656 L 222.53125 204.597656 C 228.243286 204.597656 230.039063 206.392761 230.039063 212.105469 L 230.039063 221.734375 C 230.039063 227.44696 228.243286 229.080078 222.53125 229.080078 L 212.900391 229.080078 Z M 267.089844 229.080078 C 261.376495 229.080078 259.417969 227.44696 259.417969 221.734375 L 259.417969 212.105469 C 259.417969 206.392761 261.376495 204.597656 267.089844 204.597656 L 276.71875 204.597656 C 282.430786 204.597656 284.390625 206.392761 284.390625 212.105469 L 284.390625 221.734375 C 284.390625 227.44696 282.430786 229.080078 276.71875 229.080078 L 267.089844 229.080078 Z M 321.277344 229.080078 C 315.565338 229.080078 313.769531 227.44696 313.769531 221.734375 L 313.769531 212.105469 C 313.769531 206.392761 315.565338 204.597656 321.277344 204.597656 L 330.908203 204.597656 C 336.621552 204.597656 338.580078 206.392761 338.580078 212.105469 L 338.580078 221.734375 C 338.580078 227.44696 336.621552 229.080078 330.908203 229.080078 L 321.277344 229.080078 Z"/>
            </g>
            <g id="forkknifecirclefill">
                <path id="path1" fill="#000000" stroke="none" opacity="0" d="M 314.352936 303.367676 L 453.764709 303.367676 L 453.764709 442.848328 L 314.352936 442.848328 Z"/>
                <path id="path2" fill="#ffffff" stroke="none" d="M 384.059113 442.779449 C 422.192261 442.779449 453.764709 411.138702 453.764709 373.073853 C 453.764709 334.94043 422.123962 303.367676 383.990814 303.367676 C 345.925659 303.367676 314.352936 334.94043 314.352936 373.073853 C 314.352936 411.138702 345.994019 442.779449 384.059113 442.779449 Z M 368.819275 419.202576 C 365.539032 419.202576 363.420502 417.425659 363.488861 414.145569 L 364.308899 369.451721 C 364.308899 368.085144 363.693878 366.991272 362.463745 366.444855 C 357.13327 364.189819 354.878113 361.797668 355.219757 354.758789 L 356.313232 330.361694 C 356.381531 328.584839 357.406647 327.559784 358.978455 327.559784 C 360.618591 327.559784 361.575348 328.653198 361.575348 330.429993 L 361.233612 354.280426 C 361.233612 355.578857 362.190399 356.535583 363.420502 356.535583 C 364.855652 356.535583 365.744049 355.578857 365.744049 354.348755 L 366.154083 329.814972 C 366.154083 328.038147 367.247498 327.081421 368.819275 327.081421 C 370.391296 327.081421 371.552948 328.038147 371.552948 329.814972 L 371.826141 354.348755 C 371.826141 355.578857 372.782898 356.535583 374.150024 356.535583 C 375.516571 356.535583 376.473328 355.578857 376.473328 354.280426 L 376.131836 330.429993 C 376.131836 328.653198 377.088593 327.559784 378.660065 327.559784 C 380.300385 327.559784 381.188843 328.584839 381.325439 330.361694 L 382.487091 354.758789 C 382.828583 361.797668 380.50528 364.189819 375.243378 366.444855 C 374.012878 366.991272 373.466461 368.085144 373.466461 369.451721 L 374.150024 414.145569 C 374.286621 417.425659 372.167664 419.202576 368.819275 419.202576 Z M 397.316559 385.374542 C 397.384857 383.871399 396.701843 382.778015 395.266449 381.821289 L 393.011414 380.180969 C 391.029602 378.746094 389.936249 376.832581 389.936249 374.030609 L 389.936249 371.365234 C 389.936249 355.510498 394.173096 338.699097 400.597198 329.746613 C 401.827148 327.901428 402.920502 327.081421 404.355927 327.081421 C 405.790771 327.081421 407.226196 327.969788 407.226196 330.019958 L 407.226196 414.350464 C 407.226196 417.562256 405.175507 419.202576 401.75885 419.202576 C 398.547058 419.202576 396.359802 417.425659 396.428101 413.940674 Z"/>
            </g>
        </g>
    </g>
</svg>
